<?xml version="1.0" encoding="utf-8"?>
<!-- Generator: Adobe Illustrator 22.0.0, SVG Export Plug-In . SVG Version: 6.00 Build 0)  -->
<svg version="1.1" id="Layer_1" xmlns="http://www.w3.org/2000/svg" xmlns:xlink="http://www.w3.org/1999/xlink" x="0px" y="0px"
	 viewBox="0 0 228.2 43.6" style="enable-background:new 0 0 228.2 43.6;" xml:space="preserve">
<style type="text/css">
	.st0{fill:#FFFFFF;}
	.st1{fill:#0B4378;}
</style>
<g>
	<path class="st0" d="M41.4,14.8l-6.6,23h-7.5l-3.4-13.5c-0.2-0.9-0.4-1.9-0.4-2.9h-0.1c-0.1,1.2-0.3,2.1-0.4,2.9l-3.6,13.6H12
		l-6.5-23h7.2l3.2,15c0.1,0.7,0.3,1.6,0.3,2.6h0.1c0.1-1,0.2-1.9,0.4-2.7l4-14.9h6.8l3.6,15c0.1,0.4,0.2,1.2,0.3,2.6h0.2
		c0.1-0.9,0.2-1.7,0.4-2.6l3-15L41.4,14.8L41.4,14.8z"/>
	<path class="st0" d="M51.8,37.8h-7.1v-23h7.1V37.8z"/>
	<path class="st0" d="M56.3,37.2v-5.7c1.2,0.7,2.3,1.2,3.5,1.6c1.2,0.3,2.3,0.5,3.3,0.5c1.3,0,2.3-0.2,3-0.5s1.1-0.9,1.1-1.6
		c0-0.4-0.2-0.8-0.5-1.1c-0.3-0.3-0.8-0.6-1.3-0.8c-0.5-0.2-1.1-0.4-1.7-0.6c-0.6-0.2-1.2-0.4-1.8-0.6c-0.9-0.3-1.7-0.7-2.4-1.1
		s-1.3-0.9-1.8-1.4s-0.8-1.1-1.1-1.8c-0.2-0.7-0.4-1.5-0.4-2.4c0-1.3,0.3-2.4,0.8-3.3c0.6-0.9,1.3-1.7,2.2-2.3c0.9-0.6,2-1,3.2-1.3
		s2.5-0.4,3.8-0.4c1,0,2.1,0.1,3.1,0.2c1,0.2,2.1,0.4,3.1,0.7v5.5c-0.9-0.5-1.9-0.9-2.9-1.2c-1-0.3-2-0.4-3-0.4
		c-0.5,0-0.9,0-1.3,0.1s-0.8,0.2-1.1,0.4c-0.3,0.2-0.6,0.4-0.7,0.6c-0.2,0.2-0.3,0.5-0.3,0.8c0,0.4,0.1,0.8,0.4,1.1
		c0.3,0.3,0.6,0.6,1.1,0.8c0.4,0.2,0.9,0.4,1.4,0.6s1.1,0.3,1.6,0.5c0.9,0.3,1.8,0.7,2.6,1.1c0.8,0.4,1.4,0.8,2,1.4
		c0.5,0.5,1,1.1,1.3,1.8c0.3,0.7,0.4,1.5,0.4,2.5c0,1.4-0.3,2.5-0.9,3.5s-1.4,1.8-2.4,2.4c-1,0.6-2.1,1-3.4,1.3s-2.6,0.4-4,0.4
		C60.8,38.4,58.5,38,56.3,37.2z"/>
	<path class="st0" d="M98.7,28.3h-15c0.2,3.3,2.3,5,6.3,5c2.5,0,4.8-0.6,6.7-1.8v5.1c-2.1,1.1-4.9,1.7-8.3,1.7c-3.7,0-6.6-1-8.7-3.1
		s-3.1-4.9-3.1-8.6c0-3.8,1.1-6.8,3.3-9.1c2.2-2.2,4.9-3.3,8.2-3.3c3.4,0,6,1,7.8,3s2.8,4.7,2.8,8.1C98.7,25.3,98.7,28.3,98.7,28.3z
		 M92.2,24c0-3.3-1.3-4.9-4-4.9c-1.1,0-2.1,0.5-3,1.4c-0.8,0.9-1.3,2.1-1.5,3.5H92.2z"/>
	<path class="st0" d="M136.4,37.8h-3.7V24.6c0-2.5-0.4-4.4-1.2-5.5s-2.1-1.7-4-1.7c-1.6,0-2.9,0.7-4,2.2c-1.1,1.4-1.7,3.2-1.7,5.2
		v13.1h-3.7V24.1c0-4.5-1.7-6.8-5.2-6.8c-1.6,0-3,0.7-4,2c-1,1.4-1.6,3.1-1.6,5.3v13.1h-3.7v-23h3.7v3.6h0.1c1.6-2.8,4-4.2,7.1-4.2
		c1.6,0,2.9,0.4,4.1,1.3c1.2,0.9,2,2,2.4,3.4c1.7-3.2,4.3-4.8,7.6-4.8c5.1,0,7.6,3.1,7.6,9.4v14.4H136.4z"/>
	<path class="st0" d="M161.9,27.2h-16.3c0.1,2.6,0.8,4.5,2.1,5.9s3.1,2.1,5.4,2.1c2.6,0,5-0.9,7.1-2.6v3.5c-2,1.5-4.7,2.2-8,2.2
		s-5.8-1-7.7-3.1s-2.8-5-2.8-8.8c0-3.6,1-6.5,3-8.7c2-2.3,4.6-3.4,7.6-3.4s5.3,1,7,2.9c1.6,1.9,2.5,4.7,2.5,8.1L161.9,27.2
		L161.9,27.2z M158.1,24.1c0-2.1-0.5-3.8-1.5-5s-2.4-1.8-4.2-1.8c-1.7,0-3.2,0.6-4.4,1.9c-1.2,1.2-2,2.9-2.2,4.9H158.1z"/>
	<path class="st0" d="M187.1,37.8h-3.7v-3.9h-0.1c-1.7,3-4.3,4.4-7.9,4.4c-2.9,0-5.2-1-6.9-3.1s-2.6-4.9-2.6-8.4
		c0-3.8,1-6.9,2.9-9.1c1.9-2.3,4.5-3.4,7.7-3.4s5.5,1.2,6.9,3.7h0.1V3.7h3.7L187.1,37.8L187.1,37.8z M183.4,27.4V24
		c0-1.9-0.6-3.4-1.8-4.7c-1.2-1.3-2.8-1.9-4.7-1.9c-2.2,0-4,0.8-5.3,2.5c-1.3,1.6-1.9,3.9-1.9,6.8c0,2.7,0.6,4.7,1.9,6.3
		c1.2,1.5,2.9,2.3,5,2.3s3.7-0.7,5-2.2C182.8,31.5,183.4,29.7,183.4,27.4z"/>
	<path class="st0" d="M195.4,9c-0.7,0-1.2-0.2-1.7-0.7c-0.5-0.4-0.7-1-0.7-1.7s0.2-1.3,0.7-1.7c0.5-0.5,1-0.7,1.7-0.7
		s1.2,0.2,1.7,0.7s0.7,1,0.7,1.7s-0.2,1.2-0.7,1.7C196.7,8.7,196.1,9,195.4,9z M197.2,37.8h-3.7v-23h3.7V37.8z"/>
	<path class="st0" d="M221.2,37.8h-3.7v-3.6h-0.1c-1.6,2.8-4,4.1-7.1,4.1c-2.3,0-4.1-0.6-5.4-1.8c-1.3-1.2-1.9-2.8-1.9-4.8
		c0-4.3,2.5-6.8,7.6-7.5l6.9-1c0-3.9-1.6-5.9-4.7-5.9c-2.8,0-5.3,0.9-7.5,2.8v-3.8c2.3-1.4,4.9-2.2,7.8-2.2c5.4,0,8.1,2.9,8.1,8.6
		L221.2,37.8L221.2,37.8z M217.5,26.2l-5.6,0.8c-1.7,0.2-3,0.7-3.9,1.3c-0.9,0.6-1.3,1.7-1.3,3.2c0,1.1,0.4,2,1.2,2.8
		c0.8,0.7,1.9,1.1,3.2,1.1c1.8,0,3.3-0.6,4.5-1.9c1.2-1.3,1.8-2.9,1.8-4.9v-2.4H217.5z"/>
</g>
<path class="st1" d="M48.3,11.2c-1.2,0-2.2-0.4-2.9-1.1c-0.8-0.7-1.1-1.6-1.1-2.6c0-1.1,0.4-1.9,1.1-2.6c0.8-0.7,1.7-1,2.9-1
	s2.2,0.3,3,1s1.1,1.5,1.1,2.6s-0.4,2-1.1,2.7C50.5,10.8,49.5,11.2,48.3,11.2z"/>
</svg>
