<?xml version="1.0" encoding="utf-8"?>
<!-- Generator: Adobe Illustrator 20.1.0, SVG Export Plug-In . SVG Version: 6.00 Build 0)  -->
<svg version="1.1" id="Layer_1" xmlns="http://www.w3.org/2000/svg" xmlns:xlink="http://www.w3.org/1999/xlink" x="0px" y="0px"
	 viewBox="0 0 226 41.8" style="enable-background:new 0 0 226 41.8;" xml:space="preserve">
<style type="text/css">
	.st0{fill:#404041;}
	.st1{fill:#EA324E;}
</style>
<g>
	<g>
		<path class="st0" d="M41.7,11.1l-6.6,23h-7.5l-3.4-13.5c-0.2-0.9-0.4-1.9-0.4-2.9h-0.1c-0.1,1.2-0.3,2.1-0.4,2.9l-3.6,13.6h-7.4
			l-6.5-23H13l3.2,15c0.1,0.7,0.3,1.6,0.3,2.6h0.1c0.1-1,0.2-1.9,0.4-2.7l4-14.9h6.8l3.6,15c0.1,0.4,0.2,1.2,0.3,2.6h0.2
			c0.1-0.9,0.2-1.7,0.4-2.6l3-15H41.7z"/>
		<path class="st0" d="M52.2,34.1h-7.1v-23h7.1V34.1z"/>
		<path class="st0" d="M56.6,33.5v-5.8c1.2,0.7,2.3,1.2,3.5,1.6c1.2,0.3,2.3,0.5,3.3,0.5c1.3,0,2.3-0.2,3-0.5
			c0.7-0.3,1.1-0.9,1.1-1.6c0-0.4-0.2-0.8-0.5-1.1c-0.3-0.3-0.8-0.6-1.3-0.8c-0.5-0.2-1.1-0.4-1.7-0.6c-0.6-0.2-1.2-0.4-1.8-0.6
			c-0.9-0.3-1.7-0.7-2.4-1.1c-0.7-0.4-1.3-0.9-1.8-1.4c-0.5-0.5-0.8-1.1-1.1-1.8c-0.2-0.7-0.4-1.5-0.4-2.4c0-1.3,0.3-2.4,0.8-3.3
			c0.6-0.9,1.3-1.7,2.2-2.3c0.9-0.6,2-1,3.2-1.3c1.2-0.3,2.5-0.4,3.8-0.4c1,0,2.1,0.1,3.1,0.2c1,0.2,2.1,0.4,3.1,0.7v5.5
			C72,16.4,71.1,16,70,15.7c-1-0.3-2-0.4-3-0.4c-0.5,0-0.9,0-1.3,0.1c-0.4,0.1-0.8,0.2-1.1,0.4c-0.3,0.2-0.6,0.4-0.7,0.6
			c-0.2,0.2-0.3,0.5-0.3,0.8c0,0.4,0.1,0.8,0.4,1.1c0.3,0.3,0.6,0.6,1.1,0.8c0.4,0.2,0.9,0.4,1.4,0.6c0.5,0.2,1.1,0.3,1.6,0.5
			c0.9,0.3,1.8,0.7,2.6,1.1c0.8,0.4,1.4,0.8,2,1.4c0.5,0.5,1,1.1,1.3,1.8c0.3,0.7,0.4,1.5,0.4,2.5c0,1.4-0.3,2.5-0.9,3.5
			c-0.6,1-1.4,1.8-2.4,2.4c-1,0.6-2.1,1-3.4,1.3c-1.3,0.3-2.6,0.4-4,0.4C61.1,34.6,58.8,34.2,56.6,33.5z"/>
		<path class="st0" d="M99.1,24.6h-15c0.2,3.3,2.3,5,6.3,5c2.5,0,4.8-0.6,6.7-1.8v5.1c-2.1,1.1-4.9,1.7-8.3,1.7
			c-3.7,0-6.6-1-8.7-3.1c-2.1-2.1-3.1-4.9-3.1-8.6c0-3.8,1.1-6.8,3.3-9.1c2.2-2.2,4.9-3.3,8.2-3.3c3.4,0,6,1,7.8,3
			c1.8,2,2.8,4.7,2.8,8.1V24.6z M92.5,20.2c0-3.3-1.3-4.9-4-4.9c-1.1,0-2.1,0.5-3,1.4c-0.8,0.9-1.3,2.1-1.5,3.5H92.5z"/>
		<path class="st0" d="M136.7,34.1H133V20.9c0-2.5-0.4-4.4-1.2-5.5c-0.8-1.1-2.1-1.7-4-1.7c-1.6,0-2.9,0.7-4,2.2
			c-1.1,1.4-1.7,3.2-1.7,5.2v13.1h-3.7V20.4c0-4.5-1.7-6.8-5.2-6.8c-1.6,0-3,0.7-4,2c-1,1.4-1.6,3.1-1.6,5.3v13.1H104v-23h3.7v3.6
			h0.1c1.6-2.8,4-4.2,7.1-4.2c1.6,0,2.9,0.4,4.1,1.3c1.2,0.9,2,2,2.4,3.5c1.7-3.2,4.3-4.8,7.6-4.8c5.1,0,7.6,3.1,7.6,9.4V34.1z"/>
		<path class="st0" d="M162.2,23.5h-16.3c0.1,2.6,0.8,4.5,2.1,5.9c1.3,1.4,3.1,2.1,5.4,2.1c2.6,0,5-0.9,7.1-2.6v3.5
			c-2,1.5-4.7,2.2-8,2.2c-3.3,0-5.8-1-7.7-3.1c-1.9-2.1-2.8-5-2.8-8.8c0-3.6,1-6.5,3-8.8c2-2.3,4.6-3.4,7.6-3.4c3,0,5.3,1,7,2.9
			c1.6,1.9,2.5,4.7,2.5,8.1V23.5z M158.4,20.4c0-2.1-0.5-3.8-1.5-5c-1-1.2-2.4-1.8-4.2-1.8c-1.7,0-3.2,0.6-4.4,1.9
			c-1.2,1.2-2,2.9-2.2,4.9H158.4z"/>
		<path class="st0" d="M187.4,34.1h-3.7v-3.9h-0.1c-1.7,3-4.3,4.5-7.9,4.5c-2.9,0-5.2-1-6.9-3.1c-1.7-2.1-2.6-4.9-2.6-8.4
			c0-3.8,1-6.9,2.9-9.1c1.9-2.3,4.5-3.4,7.7-3.4c3.2,0,5.5,1.2,6.9,3.7h0.1V0h3.7V34.1z M183.7,23.7v-3.4c0-1.9-0.6-3.4-1.8-4.7
			c-1.2-1.3-2.8-1.9-4.7-1.9c-2.2,0-4,0.8-5.3,2.5c-1.3,1.6-1.9,3.9-1.9,6.8c0,2.7,0.6,4.7,1.9,6.3c1.2,1.5,2.9,2.3,5,2.3
			c2.1,0,3.7-0.7,5-2.2C183.1,27.8,183.7,25.9,183.7,23.7z"/>
		<path class="st0" d="M195.8,5.2c-0.7,0-1.2-0.2-1.7-0.7c-0.5-0.4-0.7-1-0.7-1.7c0-0.7,0.2-1.3,0.7-1.7c0.5-0.5,1-0.7,1.7-0.7
			c0.7,0,1.2,0.2,1.7,0.7c0.5,0.5,0.7,1,0.7,1.7c0,0.7-0.2,1.2-0.7,1.7C197,5,196.4,5.2,195.8,5.2z M197.6,34.1h-3.7v-23h3.7V34.1z"
			/>
		<path class="st0" d="M221.5,34.1h-3.7v-3.6h-0.1c-1.6,2.8-4,4.1-7.1,4.1c-2.3,0-4.1-0.6-5.4-1.8c-1.3-1.2-1.9-2.8-1.9-4.8
			c0-4.3,2.5-6.8,7.6-7.5l6.9-1c0-3.9-1.6-5.9-4.7-5.9c-2.8,0-5.3,0.9-7.5,2.8v-3.8c2.3-1.4,4.9-2.2,7.8-2.2c5.4,0,8.1,2.9,8.1,8.6
			V34.1z M217.8,22.4l-5.6,0.8c-1.7,0.2-3,0.7-3.9,1.3c-0.9,0.6-1.3,1.7-1.3,3.2c0,1.1,0.4,2,1.2,2.8c0.8,0.7,1.9,1.1,3.2,1.1
			c1.8,0,3.3-0.6,4.5-1.9c1.2-1.3,1.8-2.9,1.8-4.9V22.4z"/>
	</g>
	<path class="st1" d="M48.7,7.4c-1.2,0-2.2-0.4-2.9-1.1c-0.8-0.7-1.1-1.6-1.1-2.6c0-1.1,0.4-1.9,1.1-2.6c0.8-0.7,1.7-1,2.9-1
		c1.2,0,2.2,0.3,3,1c0.8,0.7,1.1,1.5,1.1,2.6c0,1.1-0.4,2-1.1,2.7C50.9,7.1,49.9,7.4,48.7,7.4z"/>
</g>
</svg>
